<?xml version="1.0" standalone="no"?>
<!DOCTYPE svg PUBLIC "-//W3C//DTD SVG 20010904//EN"
 "http://www.w3.org/TR/2001/REC-SVG-20010904/DTD/svg10.dtd">
<svg version="1.0" xmlns="http://www.w3.org/2000/svg"
 width="700.000000pt" height="700.000000pt" viewBox="0 0 700.000000 700.000000"
 preserveAspectRatio="xMidYMid meet">
<metadata>
Created by potrace 1.14, written by Peter Selinger 2001-2017
</metadata>
<g transform="translate(0.000000,700.000000) scale(0.100000,-0.100000)"
fill="#000000" stroke="none">
<path d="M1100 6959 c-124 -17 -152 -23 -235 -50 -439 -140 -759 -518 -826
-974 -8 -59 -11 -693 -11 -2451 0 -1304 2 -2379 5 -2390 3 -10 9 -39 12 -64
28 -200 145 -440 294 -602 176 -191 424 -330 666 -373 17 -2 41 -8 55 -11 14
-4 1098 -8 2410 -8 2571 -2 2471 -4 2650 50 455 138 798 549 845 1014 4 36 7
1127 7 2425 l0 2360 -22 105 c-37 181 -81 289 -179 438 -176 268 -461 458
-780 519 -78 15 -295 17 -2466 18 -1309 0 -2400 -2 -2425 -6z m4790 -343 c368
-49 672 -347 730 -718 8 -53 10 -705 8 -2443 l-3 -2370 -23 -73 c-62 -201
-167 -353 -323 -470 -104 -78 -263 -142 -394 -159 -48 -6 -4624 -9 -4735 -3
-30 2 -94 14 -142 26 -273 73 -498 280 -590 544 -50 144 -48 16 -45 2575 2
2298 3 2392 21 2455 100 350 401 609 741 637 39 3 71 6 72 7 7 5 4641 -3 4683
-8z"/>
<path d="M4317 4594 c-1 -1 -58 -4 -127 -8 -69 -3 -134 -8 -146 -10 -19 -4
-47 -7 -214 -21 -30 -3 -144 -6 -252 -7 -137 -1 -198 -5 -198 -13 0 -6 14 -12
31 -13 109 -8 162 -102 175 -312 3 -59 7 -572 4 -630 -2 -42 -3 -40 -11 21
-61 475 -332 830 -723 946 -112 33 -199 42 -371 38 -93 -2 -183 -6 -200 -9
-109 -18 -279 -29 -442 -30 -100 -1 -143 -4 -143 -12 0 -7 20 -15 44 -18 115
-18 161 -130 166 -410 3 -146 3 -1308 0 -1456 -2 -119 -20 -253 -40 -305 -23
-60 -83 -105 -140 -105 -19 0 -30 -5 -30 -14 0 -12 29 -14 152 -16 84 0 173
-3 198 -5 65 -5 181 -17 210 -20 312 -39 529 -16 728 76 313 144 513 438 586
859 3 14 5 35 5 48 1 12 4 22 9 22 6 0 7 -206 2 -525 -5 -292 -49 -402 -168
-421 -24 -4 -41 -11 -39 -18 5 -14 617 -15 617 -1 1 6 -15 13 -35 17 -63 14
-94 36 -121 90 -48 95 -51 161 -53 1200 l-2 957 71 21 c130 39 216 49 375 46
162 -3 248 -20 357 -70 260 -119 388 -417 307 -716 -53 -198 -185 -340 -354
-385 -109 -28 -219 -13 -352 50 -181 85 -272 89 -288 13 -16 -70 15 -113 159
-219 178 -131 223 -185 480 -573 224 -337 281 -411 336 -432 14 -6 104 -9 200
-8 200 2 190 1 190 13 0 4 -25 13 -55 19 -127 26 -254 146 -425 402 -34 52
-71 107 -81 122 -11 15 -19 29 -19 32 0 2 -27 45 -59 94 -71 107 -123 161
-211 218 -57 37 -270 144 -286 144 -20 0 -157 77 -180 101 -33 34 -37 85 -9
106 30 22 89 8 203 -47 152 -73 234 -94 347 -87 117 8 146 13 231 46 208 81
349 248 388 461 32 178 -15 364 -130 507 -101 125 -309 223 -504 239 -97 7
-160 11 -163 8z m-1629 -49 c45 -8 148 -43 197 -68 149 -74 281 -221 370 -411
42 -89 89 -229 100 -300 3 -17 10 -56 15 -86 17 -100 22 -184 21 -323 -2 -340
-87 -639 -239 -842 -67 -91 -112 -135 -198 -193 -134 -91 -255 -122 -459 -117
-137 3 -158 5 -220 19 -16 3 -39 8 -50 10 -11 2 -41 10 -68 16 l-47 12 2 1116
3 1116 45 13 c25 7 56 16 70 18 14 3 39 8 55 11 104 20 318 25 403 9z m903
-1338 c-10 -9 -11 -8 -5 6 3 10 9 15 12 12 3 -3 0 -11 -7 -18z"/>
</g>
</svg>
