<svg xmlns="http://www.w3.org/2000/svg" version="1.1" xmlns:xlink="http://www.w3.org/1999/xlink" xmlns:svgjs="http://svgjs.com/svgjs" width="1000" height="1000"><rect width="1000" height="1000" rx="300" ry="300" fill="#f0f0f0"></rect><g transform="matrix(1.5625,0,0,1.5625,100,100)"><svg xmlns="http://www.w3.org/2000/svg" version="1.1" xmlns:xlink="http://www.w3.org/1999/xlink" xmlns:svgjs="http://svgjs.com/svgjs" width="512" height="512"><svg version="1.1" id="Layer_1" xmlns="http://www.w3.org/2000/svg" xmlns:xlink="http://www.w3.org/1999/xlink" x="0px" y="0px" viewBox="0 0 512 512" style="enable-background:new 0 0 512 512;" xml:space="preserve">
<style type="text/css">
	.st0{fill:none;stroke:#000000;stroke-width:25;stroke-miterlimit:10;}
</style>
<g>
	<g transform="translate(179.198663, 243.233729)">
		<g>
			<path d="M67.9,106.7h45.9V105c-14.7,0-15.7-12.1-15.7-45.7V-59.4c10.4-3.8,18.6-5.5,31.2-5.5c31.7,0,51.7,17.4,51.7,45.7
				c0,20.5-13.8,41.4-35.1,41.4c-15.9,0-23.7-9.7-33.8-9.7c-3.1,0-6,1.7-6,5.8c0,11.6,18.1,12.3,34.6,37.2
				c26.9,40.4,31.7,51.2,39.6,51.2h26.1v-1.7c-19.4,0-35.3-30.3-48.8-51.3c-13.8-21.5-49.8-23.9-49.8-35c0-3.9,2.9-4.4,4.9-4.4
				c7.2,0,18.1,10.9,34.1,10.9c29.7,0,48.8-21.1,48.8-44.5c0-27.8-20.3-47.9-56.6-47.9c-19.8,0-31.9,3.4-50.7,3.4H67.9v1.7
				c14.7,0,15.7,12.1,15.7,45.7v75.7c0,33.6-1,45.7-15.7,45.7V106.7z"></path>
		</g>
	</g>
</g>
<g>
	<g transform="translate(106.130567, 243.400195)">
		<g>
			<path d="M18.1,106.8h13.6c17.9,0,32.6,3.4,47.6,3.4c52.5,0,77.4-42,77.4-88.7s-24.9-88.7-77.4-88.7c-15,0-29.7,3.4-47.6,3.4H18.1
				v1.7c14.7,0,15.7,12.1,15.7,45.7v75.7c0,33.6-1,45.7-15.7,45.7C18.1,105.1,18.1,106.8,18.1,106.8z M48.3-60
				c9.9-3.1,19.8-4.8,30.9-4.8c42.1,0,62.9,39.7,62.9,86.3s-20.8,86.3-62.9,86.3c-11.1,0-21-1.7-30.9-4.8C48.3,103,48.3-60,48.3-60z
				"></path>
		</g>
	</g>
</g>
<path class="st0" d="M422.5,497h-333c-41.2,0-75-33.8-75-75V90c0-41.2,33.8-75,75-75h333c41.2,0,75,33.8,75,75v332
	C497.5,463.2,463.8,497,422.5,497z"></path>
</svg></svg></g></svg>